<svg width="260" height="166" viewBox="0 0 260 166" fill="none" xmlns="http://www.w3.org/2000/svg">
<g clip-path="url(#clip0_326_8)">
<path d="M64.6101 15.5171H73.7223V27.3455C76.8815 23.4332 81.6293 21.1114 86.7424 21.1114C94.0833 21.1114 99.6712 24.2741 102.648 30.0512C105.442 24.7495 111.669 21.1114 118.462 21.1114C130.185 21.1114 137.07 29.0274 137.07 42.5195V86.0671H127.957V43.0863C127.957 34.4206 124.324 29.8684 117.257 29.8684C110.19 29.8684 105.442 35.1702 105.442 42.9034V74.586H96.3294V43.1045C96.3294 34.4389 92.6042 29.8867 85.6285 29.8867C78.6528 29.8867 73.7223 35.1885 73.7223 42.9217V74.6043H64.6101V15.5171Z" fill="#EFCA6F" stroke="#EFCA6F" stroke-width="2" stroke-miterlimit="10"/>
<path d="M165.675 92.8253H156.38L165.967 66.0972L143.944 18.6372H153.33L170.605 55L185.013 12.7322H194.399L165.656 92.8071L165.675 92.8253Z" fill="#EFCA6F" stroke="#EFCA6F" stroke-width="2" stroke-miterlimit="10"/>
<path d="M84.4205 85.6062L65.2282 162.591H54.3447L41.5072 119.665L28.6697 162.591H17.8775L2.35565 102.06H11.3766L23.8306 153.176L36.4854 107.636H46.529L59.2752 152.975L75.29 85.5879H84.4023L84.4205 85.6062Z" fill="#2C4354" stroke="#2C4354" stroke-width="2" stroke-miterlimit="10"/>
<path d="M83.4997 128.953V117.069C83.4997 102.261 92.4294 93.3212 106.472 93.3212C120.515 93.3212 129.353 102.352 129.353 117.069V128.953C129.353 143.67 120.515 152.701 106.472 152.701C92.4294 152.701 83.4997 143.761 83.4997 128.953ZM106.472 144.328C115.128 144.328 120.241 138.642 120.241 128.88V117.472C120.241 107.691 115.128 102.115 106.472 102.115C97.8163 102.115 92.612 107.599 92.612 117.472V128.88C92.612 138.752 97.725 144.328 106.472 144.328Z" fill="#2C4354" stroke="#2C4354" stroke-width="2" stroke-miterlimit="10"/>
<path d="M137.134 103.267H146.246V121.384C149.533 114.4 164.58 114.035 170.807 114.035C172.487 114.035 177.107 114.126 178.312 114.309V122.883H171.264C162.517 122.883 146.94 122.17 146.228 141.86V171.568H137.116V103.285L137.134 103.267Z" fill="#2C4354" stroke="#2C4354" stroke-width="2" stroke-miterlimit="10"/>
<path d="M193.488 128.112V153.432H184.376V81.7304H193.488V124.108L223.199 91.4381H233.9L202.601 125.973L236.292 160.507H225.591L193.47 128.112H193.488Z" fill="#2C4354" stroke="#2C4354" stroke-width="2" stroke-miterlimit="10"/>
</g>
<defs>
<clipPath id="clip0_326_8">
<rect width="260" height="166" fill="white"/>
</clipPath>
</defs>
</svg>
