<svg width="105" height="98" viewBox="0 0 105 98" fill="none" xmlns="http://www.w3.org/2000/svg">
<g clip-path="url(#clip0_205_21)">
<path d="M0.875732 77.5724H2.41702C8.80984 77.5724 23.7848 77.3795 24.2227 66.8062V19.9542H32.1393V66.7361C31.6489 83.0081 14.8699 84.8667 3.38032 84.8667H0.875732V77.5899V77.5724Z" fill="#2C4354" stroke="#2C4354" stroke-miterlimit="10"/>
<path d="M41.1593 4.38367H49.0759V14.6588C51.8257 11.2572 55.9416 9.24071 60.3903 9.24071C66.7832 9.24071 71.6347 11.9936 74.2093 17.0085C76.6264 12.3969 82.0559 9.24071 87.9583 9.24071C98.1518 9.24071 104.124 16.1142 104.124 27.8623V97.1233H96.2077V28.3357C96.2077 20.8134 93.055 16.8507 86.9074 16.8507C80.7598 16.8507 76.6439 21.4622 76.6439 28.1779V56.987H68.7273V28.3357C68.7273 20.8134 65.4871 16.8507 59.427 16.8507C53.367 16.8507 49.0759 21.4622 49.0759 28.1779V56.987H41.1593V4.38367Z" fill="#2C4354" stroke="#2C4354" stroke-miterlimit="10"/>
<path d="M28.5663 0.876709C32.402 0.876709 34.9941 3.15619 34.9941 6.75075C34.9941 10.3453 32.3845 12.6248 28.5663 12.6248C24.7481 12.6248 22.2085 10.3453 22.2085 6.75075C22.2085 3.15619 24.7306 0.876709 28.5663 0.876709Z" fill="#EFCA6F" stroke="#EFCA6F" stroke-miterlimit="10"/>
</g>
<defs>
<clipPath id="clip0_205_21">
<rect width="105" height="98" fill="white"/>
</clipPath>
</defs>
</svg>
