<svg width="718" height="337" viewBox="0 0 718 337" fill="none" xmlns="http://www.w3.org/2000/svg">
<g clip-path="url(#clip0_205_56)">
<path d="M31.008 168.308H34.3467C48.2581 168.308 80.8971 167.905 81.8373 144.873V42.8783H99.0874V144.7C98.0129 180.131 61.4595 184.162 36.4574 184.162H31.008V168.308ZM90.6447 5.35498C98.9147 5.35498 104.556 10.2877 104.556 18.0419C104.556 25.7961 98.9147 30.7288 90.6447 30.7288C82.3746 30.7288 76.906 25.7961 76.906 18.0419C76.906 10.2877 82.3554 5.35498 90.6447 5.35498Z" fill="#2C4354" stroke="#2C4354" stroke-miterlimit="10"/>
<path d="M111.867 90.0177V54.7783C111.867 27.1205 128.599 9.86548 155.366 9.86548C182.134 9.86548 198.693 26.775 198.693 54.0874V75.4114H129.136V89.8641C129.136 108.539 138.653 119.115 155.366 119.115C172.079 119.115 179.85 110.651 181.424 92.6856H198.674C196.39 121.054 182.287 134.969 155.347 134.969C128.407 134.969 111.848 117.714 111.848 90.056L111.867 90.0177ZM181.424 61.6496V53.3772C181.424 35.4121 171.906 25.0092 155.366 25.0092C138.826 25.0092 129.136 35.5848 129.136 54.2601V61.6496H181.443H181.424Z" fill="#2C4354" stroke="#2C4354" stroke-miterlimit="10"/>
<path d="M248.774 37.4274C235.035 37.4274 228.166 44.1259 226.401 59.0969H209.15C211.434 34.7787 224.827 22.111 248.601 22.111C274.486 22.111 288.935 36.5637 288.935 62.0911V147.176H271.493V129.921C265.333 135.909 256.353 138.904 244.015 138.904C221.642 138.904 206.157 124.988 206.157 104.912C206.157 84.8354 221.297 71.2656 244.725 71.2656C256.353 71.2656 265.161 74.087 271.493 79.9027V61.9375C271.493 45.9109 263.741 37.4466 248.774 37.4466V37.4274ZM246.836 124.624C262.858 124.624 271.493 117.407 271.493 104.72C271.493 92.033 262.858 84.6435 246.836 84.6435C232.387 84.6435 223.407 92.3977 223.407 104.72C223.407 117.042 232.387 124.624 246.836 124.624Z" fill="#2C4354" stroke="#2C4354" stroke-miterlimit="10"/>
<path d="M397.347 54.74C397.347 47.1585 402.816 42.2258 411.086 42.2258C419.356 42.2258 424.998 47.1585 424.998 54.74C424.998 62.3214 419.356 67.4269 411.086 67.4269C402.816 67.4269 397.347 62.4941 397.347 54.74ZM402.451 79.5764H419.702V183.855H402.451V79.5764Z" fill="#2C4354" stroke="#2C4354" stroke-miterlimit="10"/>
<path d="M466.54 88.6933V136.6H444.397V0.959656H466.54V81.1118L523.855 12.303H544.098L483.79 84.6243L536.078 147.157H515.834L466.54 88.6741V88.6933Z" fill="#2C4354" stroke="#2C4354" stroke-miterlimit="10"/>
<path d="M582.033 41.7843C568.294 41.7843 561.425 48.4829 559.66 63.4538H542.41C544.693 39.1356 558.086 26.4679 581.86 26.4679C607.745 26.4679 622.194 40.9206 622.194 66.448V188.231H604.752V134.278C598.592 140.266 589.612 143.261 577.274 143.261C554.901 143.261 539.416 129.345 539.416 109.269C539.416 89.1923 554.556 75.6225 577.984 75.6225C589.612 75.6225 598.42 78.444 604.752 84.2596V66.2945C604.752 50.2679 597 41.8035 582.033 41.8035V41.7843ZM580.095 128.981C596.117 128.981 604.752 121.764 604.752 109.077C604.752 96.3899 596.117 89.0004 580.095 89.0004C565.646 89.0004 556.666 96.7546 556.666 109.077C556.666 121.399 565.646 128.981 580.095 128.981Z" fill="#2C4354" stroke="#2C4354" stroke-miterlimit="10"/>
<path d="M0.959412 189.44H18.2095V211.82C24.1962 204.43 33.1763 200.016 42.8663 200.016C56.7776 200.016 67.3503 206.004 72.9916 216.925C78.2683 206.887 90.069 200.016 102.925 200.016C125.107 200.016 138.154 214.987 138.154 240.533V314.524H120.904V241.589C120.904 225.198 114.035 216.58 100.642 216.58C87.2484 216.58 78.2683 226.618 78.2683 241.243V303.949H61.0182V241.589C61.0182 225.198 53.9762 216.58 40.7747 216.58C27.5733 216.58 18.2287 226.618 18.2287 241.243V303.949H0.959412V189.44Z" fill="#2C4354" stroke="#2C4354" stroke-miterlimit="10"/>
<path d="M164.308 160.727C150.569 160.842 124.128 169.863 122.382 184.834H105.132C107.415 160.515 140.38 145.391 164.154 145.391C190.039 145.391 228.933 157.387 228.933 182.934V275.35H211.491V258.095C205.332 264.084 196.352 267.078 184.014 267.078C161.641 267.078 146.156 253.163 146.156 233.086C146.156 213.01 161.295 199.44 184.724 199.44C196.352 199.44 205.159 202.261 211.491 208.077V182.761C211.491 166.734 183.63 160.554 164.308 160.727ZM186.835 252.817C202.857 252.817 211.491 245.6 211.491 232.913C211.491 220.227 202.857 212.837 186.835 212.837C172.386 212.837 163.406 220.591 163.406 232.913C163.406 245.236 172.386 252.817 186.835 252.817Z" fill="#2C4354" stroke="#2C4354" stroke-miterlimit="10"/>
<path d="M242.058 155.18H259.308V177.559C265.468 170.17 284.579 165.755 295.324 165.755C318.388 165.755 344.004 180.381 344.004 206.273V304.716H326.754V207.329C326.754 190.592 307.125 182.319 292.868 182.319C278.611 182.319 259.308 192.012 259.308 206.983V269.688H242.058V155.18Z" fill="#2C4354" stroke="#2C4354" stroke-miterlimit="10"/>
<path d="M493 336.04H475.386L493.518 285.485L440.29 150.305H458.078L502.326 264.525L536.96 162.531H554.748L493 336.04Z" fill="#2C4354" stroke="#2C4354" stroke-miterlimit="10"/>
<path d="M582.052 214.545C568.314 214.545 561.444 221.244 559.679 236.215H542.429C544.712 211.897 558.105 199.229 581.88 199.229C607.764 199.229 622.213 213.682 622.213 239.209V324.294H604.771V307.039C598.612 313.027 589.631 316.021 577.294 316.021C554.92 316.021 539.435 302.106 539.435 282.03C539.435 261.953 554.575 248.384 578.004 248.384C589.632 248.384 598.439 251.205 604.771 257.021V239.055C604.771 223.029 597.019 214.565 582.052 214.565V214.545ZM580.114 301.742C596.136 301.742 604.771 294.525 604.771 281.838C604.771 269.151 596.136 261.761 580.114 261.761C565.666 261.761 556.686 269.516 556.686 281.838C556.686 294.16 565.666 301.742 580.114 301.742Z" fill="#2C4354" stroke="#2C4354" stroke-miterlimit="10"/>
<path d="M634.8 264.852H652.05C653.279 281.761 660.148 289.515 675.825 289.515C690.446 289.515 699.771 280.533 699.771 263.086V244.775C693.439 251.474 683.749 255.351 672.121 255.351C646.409 255.351 630.56 238.096 630.56 210.438V198.461C630.56 170.803 646.409 153.548 672.121 153.548C683.749 153.548 693.439 157.425 699.771 164.124V142.992H717.021V262.606C717.021 289.918 700.999 305.062 675.805 305.062C649.383 305.062 636.892 291.319 634.781 264.89L634.8 264.852ZM673.541 239.478C690.273 239.478 699.771 228.902 699.771 210.227V199.133C699.771 180.458 690.254 170.074 673.541 170.074C656.828 170.074 647.829 180.65 647.829 199.133V210.227C647.829 228.729 656.982 239.478 673.541 239.478Z" fill="#2C4354" stroke="#2C4354" stroke-miterlimit="10"/>
<g clip-path="url(#clip1_205_56)">
<path d="M300.979 17.9766H318.585V40.7521C324.872 33.2319 334.409 28.7393 345.357 28.7393C368.897 28.7393 382.567 43.6234 382.567 69.9734L382.312 221.139L364.961 219.967V71.0478C364.961 54.015 357.421 45.5963 342.85 45.5963C328.28 45.5963 318.585 55.4604 318.585 70.6962V134.51H300.979V17.9766Z" fill="#EFCA6F" stroke="#EFCA6F" stroke-miterlimit="10"/>
<path d="M445.021 323.023H427.415V300.248C421.128 307.592 411.767 312.261 401.172 312.261C377.632 312.261 364.138 297.377 364.138 271.027L364.843 208.677H382.312L381.744 270.499C381.744 287.532 389.108 296.126 403.502 296.126C417.897 296.126 427.415 286.086 427.415 270.851V206.49H445.021V323.023Z" fill="#EFCA6F" stroke="#EFCA6F" stroke-miterlimit="10"/>
</g>
</g>
<defs>
<clipPath id="clip0_205_56">
<rect width="718" height="337" fill="white"/>
</clipPath>
<clipPath id="clip1_205_56">
<rect width="146" height="307" fill="white" transform="translate(298 17)"/>
</clipPath>
</defs>
</svg>
