<svg width="232" height="255" viewBox="0 0 232 255" fill="none" xmlns="http://www.w3.org/2000/svg">
<g clip-path="url(#clip0_205_38)">
<path d="M37.5661 81.0456C37.5661 81.0456 -6.0033 141.848 73.7495 166.082C91.6685 171.524 110.752 171.923 128.925 167.388C142.988 163.887 159.706 158.01 171.931 148.378C171.931 148.378 190.832 124.054 181.372 92.2375L149.191 41.7563L123.959 28.1156L91.3774 22.6558L36.9112 41.7563L32.5451 70.1077L37.5479 81.0275L37.5661 81.0456Z" fill="#F1F1F1" stroke="#344656" stroke-miterlimit="10"/>
<path d="M95.416 31.7619C95.416 31.7619 86.3929 95.0856 163.926 83.0956C163.926 83.0956 200.692 135.735 141.878 162.4C141.878 162.4 130.617 190.57 143.024 203.213C145.68 205.916 149.427 207.185 153.23 207.258C159.251 207.385 171.276 212.373 171.276 250.375C171.276 250.375 252.811 241.051 224.742 191.731C224.742 191.731 220.448 193.291 228.98 148.741C232.982 127.863 233.11 106.368 228.798 85.5626C223.341 59.2608 210.043 29.1136 178.625 13.786C178.625 13.786 134.656 -15.3999 99.1635 11.1921C99.1635 11.1921 82.8091 4.68014 52.1377 18.8468C46.2436 21.5677 40.8042 25.1774 36.0198 29.5489C20.393 43.7518 -10.2056 79.7943 3.4019 134.901C5.13012 141.885 8.18634 148.469 12.2067 154.437C18.1009 163.18 26.5419 180.485 18.6466 200.057C10.9879 219.012 14.1714 233.251 30.9079 245.024C39.1852 250.846 62.9982 257.014 83.0456 254.347C83.0456 254.347 44.2789 197.028 103.093 170.381C103.093 170.381 92.3962 170.381 73.6768 164.323C28.8886 146.873 19.9382 116.018 42.9145 81.0459C42.9145 81.0459 91.05 83.0594 95.3978 31.7437L95.416 31.7619Z" fill="#344656"/>
<path d="M112.444 105.08C112.444 105.08 117.21 98.9671 126.287 96.4277C133.873 94.3235 143.642 93.5254 149.209 99.076C150.537 100.4 153.211 103.067 156.559 109.071C156.559 109.071 150.537 99.076 137.839 98.4048C137.839 98.4048 145.862 125.069 133.837 135.717C133.837 135.717 124.632 144.388 116.064 137.404C113.408 135.245 111.679 132.18 110.934 128.86C109.897 124.289 109.242 116.326 112.462 105.08H112.444Z" fill="#344656"/>
<path d="M49.0633 133.214C46.0798 129.459 44.5699 124.743 44.5153 119.936C44.4426 114.186 45.2976 105.189 50.2821 97.7337C50.2821 97.7337 42.2596 96.4095 31.5628 105.733C31.5628 105.733 40.9134 91.0766 55.6305 93.743C55.6305 93.743 62.3069 95.0672 67.6553 101.742C67.6553 101.742 76.0053 124.017 66.0908 136.424C61.0335 140.415 55.4668 140.161 49.0633 133.214Z" fill="#344656"/>
<path d="M90.395 131.853C88.7214 134.955 87.448 137.912 85.7379 140.832L85.0467 139.599C88.6123 139.472 92.1778 139.472 95.7434 139.599L95.0521 140.832C93.3421 137.912 92.0687 134.973 90.395 131.853ZM90.395 131.853C92.5963 134.701 95.2886 138.111 97.217 141.159C92.6872 141.358 88.1211 141.358 83.5731 141.159C85.5015 138.111 88.1938 134.701 90.395 131.853Z" fill="#344656"/>
<path d="M90.395 131.853C88.7214 134.955 87.448 137.912 85.7379 140.832L85.0467 139.599C88.6123 139.472 92.1778 139.472 95.7434 139.599L95.0521 140.832C93.3421 137.912 92.0687 134.973 90.395 131.853ZM90.395 131.853C92.5963 134.701 95.2886 138.111 97.217 141.159C92.6872 141.358 88.1211 141.358 83.5731 141.159C85.5015 138.111 88.1938 134.701 90.395 131.853Z" stroke="#344656"/>
<path d="M81.0445 149.739C88.1393 152.496 94.7793 151.716 101.765 149.067C96.271 154.128 86.7203 154.926 81.0445 149.739Z" fill="#344656" stroke="#344656" stroke-width="0.5"/>
<path d="M109.806 85.127C108.296 88.3013 109.569 91.5845 112.407 90.9133C114.845 90.3329 118.538 89.698 123.14 86.4148C123.14 86.4148 133.837 78.4155 144.534 87.739C144.534 87.739 139.749 77.0006 119.975 80.3564C117.21 80.828 114.517 81.7349 112.152 83.2586C111.316 83.8028 110.224 84.22 109.806 85.1088V85.127Z" fill="#344656"/>
<path d="M67.2915 85.127C69.5472 87.3762 67.8736 91.1491 64.69 90.9133C62.1796 90.7319 58.5594 89.698 53.9569 86.4148C53.9569 86.4148 43.2601 78.4155 32.5633 87.739C32.5633 87.739 37.3478 77.0006 57.1222 80.3564C59.8874 80.828 62.5798 81.7349 64.9447 83.2586C65.7815 83.8028 66.6002 84.4195 67.2915 85.1088V85.127Z" fill="#344656"/>
<path d="M50.6703 91.3164L50.6694 91.3174C57.4007 91.3455 63.7398 93.1091 68.2817 96.7334C72.8344 100.366 75.5599 105.852 75.0727 113.259L75.0571 113.492H75.0385C74.4939 122.377 71.7326 132.629 63.1323 137.136L63.1245 137.14C52.1974 142.377 37.1444 138.636 31.2875 127.636L31.2827 127.627C29.459 123.843 28.429 117.86 28.4838 111.979C28.5386 106.106 29.6766 100.262 32.2534 96.7871L32.2621 96.7744L32.2729 96.7627C33.7132 95.252 35.4097 94.6839 36.7446 94.0635C41.0487 91.9176 46.005 91.2069 50.6703 91.3164ZM67.8422 97.6631C63.4356 94.4477 57.2822 93.1334 50.6987 93.5752H50.6948C46.2469 93.7915 41.9233 94.7646 38.1479 96.9873L38.1362 96.9941C37.4516 97.3491 36.8011 97.6845 36.2377 98.0322C35.6813 98.3757 35.2268 98.7212 34.9164 99.0918C33.6031 101.393 33.0016 104.152 32.7446 107.019C32.487 109.891 32.5766 112.848 32.6313 115.536L32.686 116.611C33.0084 121.793 34.1789 126.737 37.9223 130.489L38.3188 130.873L38.3246 130.878C44.4365 136.936 54.4267 138.805 62.434 135.684C70.9824 132.023 73.9918 121.954 74.5366 113.228L74.5512 112.992H74.5639C74.8627 105.876 72.1887 100.835 67.8422 97.6631Z" fill="#344656" stroke="#344656" stroke-width="0.5"/>
<path d="M125.273 92.6411C134.008 92.1742 143.379 94.7981 149.268 101.495L149.546 101.817L149.557 101.83L149.565 101.844C150.414 103.181 150.885 104.659 151.146 106.17C151.458 107.472 151.577 108.89 151.46 110.432C151.203 116.288 149.665 122.085 147.217 127.405L147.213 127.414L147.208 127.421C144.212 132.826 138.672 136.528 132.646 137.9C126.62 139.272 120.081 138.318 115.09 134.372V134.371C104.193 126.416 103.88 111.816 108.427 100.254L108.428 100.251C109.09 98.6289 110.664 97.1177 112.205 96.4214L112.984 96.0415C116.893 94.1752 120.981 92.7976 125.273 92.6421V92.6411ZM142.509 97.2612C137.298 94.8138 130.658 94.1779 125.485 94.8979L125.478 94.8989C121.218 95.365 117.342 97.1585 113.789 99.2554L113.788 99.2544C112.674 99.9142 112.129 100.579 111.677 101.651C109.618 107.941 108.954 115.375 110.609 121.843C111.72 125.329 114.048 128.605 116.755 131.103L117.301 131.592L117.303 131.594C121.538 135.353 127.27 136.526 132.717 135.58C138.159 134.634 143.292 131.576 146.334 126.906C149.005 121.884 150.666 116.091 150.959 110.388C150.95 109.022 150.888 107.63 150.657 106.28C149.648 102.078 146.512 99.1417 142.509 97.2612Z" fill="#344656" stroke="#344656" stroke-width="0.5"/>
<path d="M78.7523 118.594C86.1745 117.288 93.6514 117.215 101.092 118.412C93.6696 119.718 86.1927 119.773 78.7523 118.594Z" fill="#344656"/>
<path d="M50.3367 120.716C52.5925 122.748 54.3753 125.178 55.6487 127.935C53.3747 125.904 51.6101 123.473 50.3367 120.716Z" fill="#FFFBEC"/>
<path d="M49.5545 123.056C51.2099 124.398 52.3742 126.103 53.0109 128.153C51.3554 126.811 50.1912 125.106 49.5545 123.056Z" fill="#FFFBEC"/>
<path d="M49.8637 116.399C53.8841 120.498 57.4315 124.979 60.4695 129.858C56.4492 125.759 52.9199 121.26 49.8637 116.399Z" fill="#FFFBEC"/>
<path d="M115.827 120.48C118.101 122.53 119.866 124.942 121.139 127.718C118.865 125.686 117.101 123.255 115.827 120.48Z" fill="#FFFBEC"/>
<path d="M115.045 122.82C116.7 124.162 117.865 125.867 118.501 127.917C116.846 126.575 115.682 124.87 115.045 122.82Z" fill="#FFFBEC"/>
</g>
<defs>
<clipPath id="clip0_205_38">
<rect width="232" height="255" fill="white"/>
</clipPath>
</defs>
</svg>
