<svg width="271" height="271" viewBox="0 0 271 271" fill="none" xmlns="http://www.w3.org/2000/svg">
<g clip-path="url(#clip0_267_56)">
<path d="M135.5 271C210.335 271 271 210.335 271 135.5C271 60.6654 210.335 0 135.5 0C60.6654 0 0 60.6654 0 135.5C0 210.335 60.6654 271 135.5 271Z" fill="#C6DAE4"/>
<path d="M75.0896 96.0639C75.0896 96.0639 41.638 142.896 102.867 161.556C116.615 165.762 131.294 166.044 145.239 162.572C156.023 159.862 168.867 155.345 178.267 147.921C178.267 147.921 192.777 129.205 185.522 104.674L160.822 65.8022L141.428 55.301L116.417 51.0948L74.5814 65.8022L71.2222 87.6516L75.0613 96.0639H75.0896Z" fill="#F1F1F1" stroke="#344656" stroke-miterlimit="10"/>
<path d="M119.494 58.0956C119.494 58.0956 112.578 106.876 172.113 97.6164C172.113 97.6164 200.342 138.154 155.176 158.704C155.176 158.704 146.538 180.413 156.051 190.123C158.083 192.212 160.963 193.172 163.899 193.257C168.528 193.342 177.759 197.181 177.759 226.454C177.759 226.454 240.371 219.256 218.804 181.288C218.804 181.288 215.502 182.502 222.051 148.175C225.128 132.112 225.212 115.542 221.91 99.536C217.732 79.2675 207.513 56.0631 183.377 44.2633C183.377 44.2633 149.615 21.7929 122.345 42.259C122.345 42.259 109.783 37.2342 86.2401 48.1589C81.7235 50.2479 77.5456 53.0426 73.8475 56.4019C61.8501 67.3548 38.3635 95.104 48.8083 137.532C50.135 142.924 52.4781 147.977 55.5833 152.579C60.0999 159.325 66.5926 172.65 60.5234 187.724C54.6517 202.318 57.0794 213.271 69.9519 222.361C76.3035 226.85 94.596 231.592 109.981 229.56C109.981 229.56 80.2273 185.409 125.366 164.887C125.366 164.887 117.151 164.887 102.782 160.229C68.3993 146.792 61.5114 123.023 79.1546 96.0921C79.1546 96.0921 116.135 97.6447 119.466 58.1238L119.494 58.0956Z" fill="#344656"/>
<path d="M132.592 114.554C132.592 114.554 136.262 109.84 143.207 107.892C149.022 106.255 156.531 105.662 160.822 109.924C161.838 110.941 163.899 113.001 166.467 117.631C166.467 117.631 161.838 109.924 152.099 109.416C152.099 109.416 158.253 129.939 149.022 138.154C149.022 138.154 141.936 144.816 135.359 139.452C133.326 137.787 132 135.415 131.407 132.875C130.616 129.374 130.108 123.22 132.592 114.554Z" fill="#344656"/>
<path d="M83.9254 136.234C81.6388 133.355 80.4814 129.713 80.4249 126.015C80.3685 121.583 81.0178 114.667 84.8569 108.908C84.8569 108.908 78.703 107.892 70.4883 115.062C70.4883 115.062 77.6867 103.77 88.9784 105.831C88.9784 105.831 94.1161 106.847 98.2093 111.985C98.2093 111.985 104.617 129.148 96.9955 138.69C93.0998 141.767 88.8372 141.569 83.9254 136.206V136.234Z" fill="#344656"/>
<path d="M115.655 135.189C114.272 137.758 113.284 140.017 112.07 142.106L111.533 141.146C114.272 141.033 117.01 141.033 119.748 141.146L119.212 142.106C118.026 140.017 117.01 137.758 115.627 135.189H115.655ZM115.655 135.189C117.179 137.194 119.296 139.847 120.906 142.36C117.405 142.501 113.876 142.501 110.404 142.36C112.042 139.847 114.131 137.222 115.655 135.189Z" fill="#344656"/>
<path d="M115.655 135.189C114.272 137.758 113.284 140.017 112.07 142.106L111.533 141.146C114.272 141.033 117.01 141.033 119.748 141.146L119.212 142.106C118.026 140.017 117.01 137.758 115.627 135.189H115.655ZM115.655 135.189C117.179 137.194 119.296 139.847 120.906 142.36C117.405 142.501 113.876 142.501 110.404 142.36C112.042 139.847 114.131 137.222 115.655 135.189Z" stroke="#344656" stroke-width="0.3"/>
<path d="M108.456 148.965C113.905 151.082 118.986 150.49 124.378 148.457C120.143 152.353 112.832 152.974 108.456 148.965Z" fill="#344656" stroke="#344656" stroke-width="0.5"/>
<path d="M130.56 99.1973C129.403 101.653 130.362 104.166 132.564 103.658C134.427 103.206 137.278 102.726 140.807 100.214C140.807 100.214 149.022 94.0596 157.236 101.23C157.236 101.23 153.567 92.9586 138.379 95.5557C136.262 95.9227 134.173 96.6284 132.367 97.7858C131.717 98.2093 130.87 98.5198 130.56 99.1973Z" fill="#344656"/>
<path d="M97.9269 99.1973C99.6771 100.947 98.3786 103.827 95.9227 103.658C94.0031 103.516 91.2084 102.726 87.6797 100.214C87.6797 100.214 79.4651 94.0596 71.2504 101.23C71.2504 101.23 74.9202 92.9586 90.1074 95.5557C92.2246 95.9227 94.3136 96.6284 96.1203 97.7858C96.7695 98.2093 97.3906 98.6892 97.9269 99.1973Z" fill="#344656"/>
<path d="M85.14 104.057C90.1663 103.945 95.1221 105.353 98.6967 108.19C102.279 111.033 104.461 115.302 103.935 120.86L103.936 120.861C103.596 127.709 101.415 135.769 94.7103 139.222L94.7015 139.227C88.0375 142.316 79.6032 141.26 73.9652 136.281L73.6967 136.04C70.9661 133.52 69.5363 130.189 68.8802 126.639C68.2034 122.977 68.3471 119.068 68.7435 115.543L68.7445 115.534L68.7465 115.526C69.1918 113.049 69.3676 110.507 71.1693 108.298L71.1859 108.279L71.2054 108.263C75.1356 105.05 80.2554 104.028 85.141 104.056L85.14 104.057ZM98.2679 108.876C94.859 106.337 90.1242 105.237 85.1859 105.6L85.1752 105.601C80.8241 105.741 76.1859 107.076 72.9115 109.806C71.8387 111.589 71.3481 113.72 71.1429 115.946C70.9365 118.185 71.0199 120.496 71.0765 122.618C71.24 126.949 72.0896 131.214 75.2289 134.261L75.5394 134.552L75.5482 134.56H75.5472C80.2164 139.174 88.0427 140.652 94.2201 138.148C97.4761 136.711 99.6586 134.064 101.09 130.925C102.524 127.783 103.197 124.159 103.436 120.803H103.437C103.761 115.368 101.661 111.402 98.2679 108.876Z" fill="#344656" stroke="#344656" stroke-width="0.5"/>
<path d="M132.478 108.065C139.636 104.104 148.586 104.019 155.772 107.783H155.771C157.671 108.773 159.429 110.044 160.849 111.691L161.129 112.026L161.139 112.037L161.147 112.051C162.141 113.646 162.468 115.489 162.562 117.299C162.59 117.665 162.604 118.041 162.599 118.426H162.639L162.624 118.69C162.599 119.135 162.559 119.581 162.513 120.027C162.183 124.095 161.064 128.106 159.296 131.77L159.291 131.78L159.285 131.79C150.749 145.856 129.604 141.184 127.771 124.773L127.77 124.764C127.4 120.044 127.969 115.434 129.677 110.937L129.776 110.702C130.306 109.546 131.429 108.538 132.478 108.065ZM152.738 107.377C147.347 105.791 140.813 106.284 136.456 108.4C135.953 108.675 135.438 108.927 134.948 109.172C134.451 109.421 133.979 109.664 133.553 109.926C132.699 110.451 132.07 111.032 131.815 111.835L131.812 111.844C130.414 115.758 129.937 120.293 130.385 124.492V124.495C131.773 139.04 150.509 143.526 158.602 131.391C160.384 127.896 161.601 123.953 162.013 120.007C162.049 119.56 162.079 119.114 162.096 118.666C162.095 118.219 162.085 117.769 162.062 117.32C161.869 114.891 160.937 112.91 159.508 111.335C157.819 109.474 155.429 108.169 152.738 107.377Z" fill="#344656" stroke="#344656" stroke-width="0.5"/>
<path d="M106.706 124.971C112.409 123.954 118.139 123.898 123.87 124.829C118.167 125.846 112.437 125.874 106.706 124.971Z" fill="#344656"/>
<path d="M84.8851 126.608C87.0023 127.878 88.3856 129.769 88.9501 132.169C86.8329 130.899 85.4497 129.007 84.8851 126.608Z" fill="#FFFBEC"/>
<path d="M84.2922 128.414C85.9578 129.177 86.8611 130.503 86.9458 132.338C85.2803 131.576 84.3769 130.249 84.2922 128.414Z" fill="#FFFBEC"/>
<path d="M84.5181 123.277C87.9903 126.128 90.7003 129.6 92.6481 133.637C89.1759 130.786 86.4659 127.314 84.5181 123.277Z" fill="#FFFBEC"/>
<path d="M135.189 126.41C137.307 127.681 138.69 129.572 139.254 131.971C137.137 130.701 135.754 128.81 135.189 126.41Z" fill="#FFFBEC"/>
<path d="M134.597 128.217C136.262 128.979 137.166 130.306 137.25 132.141C135.585 131.379 134.681 130.052 134.597 128.217Z" fill="#FFFBEC"/>
</g>
<defs>
<clipPath id="clip0_267_56">
<rect width="271" height="271" fill="white"/>
</clipPath>
</defs>
</svg>
